<?xml version="1.0" encoding="utf-8"?>
<!-- Generator: Adobe Illustrator 24.0.3, SVG Export Plug-In . SVG Version: 6.00 Build 0)  -->
<svg version="1.1" id="Layer_1" focusable="false" xmlns="http://www.w3.org/2000/svg" xmlns:xlink="http://www.w3.org/1999/xlink"
	 x="0px" y="0px" viewBox="0 0 512 512" style="enable-background:new 0 0 512 512;" xml:space="preserve">
<path d="M256,32C114.6,32,0,125.1,0,240c0,49.6,21.4,95,57,130.7C44.5,421.1,2.7,466,2.2,466.5c-2.2,2.3-2.8,5.7-1.5,8.7
	S4.8,480,8,480c66.3,0,116-31.8,140.6-51.4c32.7,12.3,69,19.4,107.4,19.4c141.4,0,256-93.1,256-208S397.4,32,256,32z M375.5,251.8
	c0,4.3-3.5,7.9-7.9,7.9H283v84.6c0,4.3-3.5,7.9-7.9,7.9h-38.3c-4.3,0-7.9-3.5-7.9-7.9v-84.6h-84.6c-4.3,0-7.9-3.5-7.9-7.9v-38.3
	c0-4.3,3.5-7.9,7.9-7.9H229V121c0-4.3,3.5-7.9,7.9-7.9h38.3c4.3,0,7.9,3.5,7.9,7.9v84.6h84.6c4.3,0,7.9,3.5,7.9,7.9V251.8z"/>
</svg>
